<?xml version="1.0" encoding="UTF-8" standalone="no" ?>
<!DOCTYPE svg PUBLIC "-//W3C//DTD SVG 1.1//EN" "http://www.w3.org/Graphics/SVG/1.1/DTD/svg11.dtd">
<svg xmlns="http://www.w3.org/2000/svg" xmlns:xlink="http://www.w3.org/1999/xlink" version="1.1" width="1280" height="1024" viewBox="0 0 1280 1024" xml:space="preserve">
<desc>Created with Fabric.js 3.6.3</desc>
<defs>
</defs>
<g transform="matrix(1.9692780337941629 0 0 1.9692780337941629 640.0153846153846 512.012312418764)" id="background-logo"  >
<rect style="stroke: none; stroke-width: 1; stroke-dasharray: none; stroke-linecap: butt; stroke-dashoffset: 0; stroke-linejoin: miter; stroke-miterlimit: 4; fill: rgb(255,255,255); fill-rule: nonzero; opacity: 1;"  paint-order="stroke"  x="-325" y="-260" rx="0" ry="0" width="650" height="520" />
</g>
<g transform="matrix(1.9692780337941629 0 0 1.9692780337941629 618.2584884913132 354.77546053093243)" id="logo-logo"  >
<g style=""  paint-order="stroke"   >
		<g transform="matrix(1.8761031581268313 0 0 -1.8761031581268315 0 0)"  >
<linearGradient id="SVGID_16_59569" gradientUnits="userSpaceOnUse" gradientTransform="matrix(152.58315 142.70387 142.70387 -152.58315 90.384766 60.583008)"  x1="0" y1="0" x2="1" y2="0">
<stop offset="0%" style="stop-color:rgb(243,108,65);stop-opacity: 1"/>
<stop offset="100%" style="stop-color:rgb(238,44,123);stop-opacity: 1"/>
</linearGradient>
<path style="stroke: none; stroke-width: 1; stroke-dasharray: none; stroke-linecap: butt; stroke-dashoffset: 0; stroke-linejoin: miter; stroke-miterlimit: 4; fill: url(#SVGID_16_59569); fill-rule: nonzero; opacity: 1;"  paint-order="stroke"  transform=" translate(-162.50252143787685, -128.78063186330405)" d="M 217.333 200.096 C 179.375 189.311 140.065 181.244 100.97 175.7 v 0 c -8.722 -1.236 -11.443 -9.44 -5.84 -16.283 v 0 c 19.709 -24.007 28.048 -59.035 29.044 -89.423 v 0 c 0.197 -5.973 2.298 -9.134 7.97 -10.393 v 0 c 20.633 -4.594 52.71 -3.589 73.419 2.595 v 0 c 4.32 1.284 6.186 3.04 7.705 6.863 v 0 c 13.895 34.935 23.607 86.594 17.836 123.003 v 0 c -0.969 6.112 -4.374 8.755 -9.094 8.755 v 0 c -1.446 0 -3.016 -0.248 -4.677 -0.721 M 134.558 68.625 c -0.896 0.193 -1.012 0.475 -1.054 1.672 v 0 c -1.059 32.446 -10.045 69.036 -30.84 94.657 v 0 c -0.763 0.936 -0.3 1.517 0.665 1.655 v 0 c 39.286 5.589 78.381 13.66 116.555 24.507 v 0 c 1.799 0.512 1.91 0.103 2.101 -1.179 v 0 c 5.331 -35.033 -4.421 -84.37 -17.27 -117.132 v 0 c -0.379 -0.958 -0.438 -1.251 -1.823 -1.665 v 0 c -11.161 -3.329 -26.151 -5.042 -40.56 -5.041 v 0 c -10.038 0 -19.795 0.831 -27.774 2.526" stroke-linecap="round" />
</g>
		<g transform="matrix(1.8761031581268313 0 0 -1.8761031581268315 17.320021079005585 -9.645373792305918)"  >
<linearGradient id="SVGID_17_59570" gradientUnits="userSpaceOnUse" gradientTransform="matrix(152.58432 142.70497 142.70497 -152.58432 90.89502 60.036133)"  x1="0" y1="0" x2="1" y2="0">
<stop offset="0%" style="stop-color:rgb(243,108,65);stop-opacity: 1"/>
<stop offset="100%" style="stop-color:rgb(238,44,123);stop-opacity: 1"/>
</linearGradient>
<path style="stroke: none; stroke-width: 1; stroke-dasharray: none; stroke-linecap: butt; stroke-dashoffset: 0; stroke-linejoin: miter; stroke-miterlimit: 4; fill: url(#SVGID_17_59570); fill-rule: nonzero; opacity: 1;"  paint-order="stroke"  transform=" translate(-171.7344344081095, -133.92180640401332)" d="m 203.218 144.55 c -14.474 -4.744 -28.138 -7.096 -43.323 -7.988 v 0 c -3.298 4.229 -7.717 6.092 -12.975 5.907 v 0 c -8.012 -0.279 -16.744 -4.153 -16.744 -9.895 v 0 c 0 -5.516 8.732 -9.617 16.744 -9.895 v 0 c 5.258 -0.184 9.677 1.677 12.975 5.908 v 0 c 11.381 -0.495 35.787 -1.044 45.828 2.199 v 0 c 10.54 3.409 9.276 14.39 1.11 14.391 v 0 c -1.087 0 -2.295 -0.195 -3.615 -0.627" stroke-linecap="round" />
</g>
		<g transform="matrix(1.8761031581268313 0 0 -1.8761031581268315 11.324607236983752 -62.67125028294748)"  >
<linearGradient id="SVGID_18_59571" gradientUnits="userSpaceOnUse" gradientTransform="matrix(152.5831 142.70383 142.70383 -152.5831 77.087402 74.799805)"  x1="0" y1="0" x2="1" y2="0">
<stop offset="0%" style="stop-color:rgb(243,108,65);stop-opacity: 1"/>
<stop offset="100%" style="stop-color:rgb(238,44,123);stop-opacity: 1"/>
</linearGradient>
<path style="stroke: none; stroke-width: 1; stroke-dasharray: none; stroke-linecap: butt; stroke-dashoffset: 0; stroke-linejoin: miter; stroke-miterlimit: 4; fill: url(#SVGID_18_59571); fill-rule: nonzero; opacity: 1;"  paint-order="stroke"  transform=" translate(-168.53876053695208, -162.18564480807237)" d="m 188.818 174.508 c -7.077 -1.018 -7.105 -4.751 -9.955 -9.451 v 0 c -12.06 -3.232 -32.186 -3.475 -43.039 -2.201 v 0 c -15.596 1.827 -17.303 -14.577 -3.817 -15.36 v 0 c 20.716 -1.199 36.937 3.928 49.462 8.591 v 0 c 4.926 -2.441 6.956 -5.576 13.473 -2.641 v 0 l 19.224 9.197 l -0.422 1.449 l -17.473 -5.079 c -1.834 -0.536 -2.539 1.867 -0.694 2.401 v 0 l 17.468 5.081 l -0.626 2.149 l -17.473 -5.079 c -0.919 -0.266 -1.551 0.202 -1.729 0.803 v 0 c -0.172 0.598 0.116 1.335 1.034 1.601 v 0 l 17.469 5.079 l -0.621 2.153 l -17.473 -5.08 c -1.845 -0.536 -2.534 1.867 -0.699 2.402 v 0 l 17.472 5.079 l -0.418 1.45 z" stroke-linecap="round" />
</g>
		<g transform="matrix(1.8761031581268313 0 0 -1.8761031581268315 20.548161748473035 32.56088261123216)"  >
<linearGradient id="SVGID_19_59572" gradientUnits="userSpaceOnUse" gradientTransform="matrix(152.58669 142.70718 142.70718 -152.58669 101.25879 48.951172)"  x1="0" y1="0" x2="1" y2="0">
<stop offset="0%" style="stop-color:rgb(243,108,65);stop-opacity: 1"/>
<stop offset="100%" style="stop-color:rgb(238,44,123);stop-opacity: 1"/>
</linearGradient>
<path style="stroke: none; stroke-width: 1; stroke-dasharray: none; stroke-linecap: butt; stroke-dashoffset: 0; stroke-linejoin: miter; stroke-miterlimit: 4; fill: url(#SVGID_19_59572); fill-rule: nonzero; opacity: 1;"  paint-order="stroke"  transform=" translate(-173.45509707822123, -111.42503898442308)" d="m 206.279 123.752 c -21.924 -4.463 -40.585 -8.012 -62.305 -8.012 v 0 c -10.441 0 -8.593 -10.249 -1.024 -11.825 v 0 c 3.849 -0.797 12.019 0.868 15.721 2.069 v 0 c 1.988 -4.283 5.362 -7.416 9.754 -7.019 v 0 c 7.165 0.644 34.438 14.199 39.497 19.261 v 0 c 3.274 3.278 2.848 5.693 -0.136 5.693 v 0 c -0.447 0 -0.95 -0.054 -1.507 -0.167" stroke-linecap="round" />
</g>
		<g transform="matrix(1.8761031581268313 0 0 -1.8761031581268315 17.55796223312535 76.58371626436545)"  >
<linearGradient id="SVGID_20_59573" gradientUnits="userSpaceOnUse" gradientTransform="matrix(152.58734 142.70779 142.70779 -152.58734 114.63037 34.654297)"  x1="0" y1="0" x2="1" y2="0">
<stop offset="0%" style="stop-color:rgb(243,108,65);stop-opacity: 1"/>
<stop offset="100%" style="stop-color:rgb(238,44,123);stop-opacity: 1"/>
</linearGradient>
<path style="stroke: none; stroke-width: 1; stroke-dasharray: none; stroke-linecap: butt; stroke-dashoffset: 0; stroke-linejoin: miter; stroke-miterlimit: 4; fill: url(#SVGID_20_59573); fill-rule: nonzero; opacity: 1;"  paint-order="stroke"  transform=" translate(-171.86126173798692, -87.96000004856447)" d="m 196.577 94.858 c -6.571 -1.712 -14.09 -2.997 -22.28 -3.812 v 0 c -8.9 -0.889 -18.586 -1.23 -28.698 -0.973 v 0 c -7.517 0.184 -6.711 -9.32 0.323 -9.32 v 0 c 10.298 0 20.178 0.123 29.286 1.029 v 0 c 9.069 0.905 16.955 2.232 24.155 4.165 v 0 c 5.596 1.5 5.417 9.221 -0.564 9.22 v 0 c -0.668 0 -1.409 -0.097 -2.222 -0.309" stroke-linecap="round" />
</g>
</g>
</g>
<g transform="matrix(1.9692780337941629 0 0 1.9692780337941629 639.6865305687256 764.9991213682806)" id="text-logo-path"  >
<path style="stroke: rgb(255,255,255); stroke-width: 8; stroke-dasharray: none; stroke-linecap: butt; stroke-dashoffset: 0; stroke-linejoin: miter; stroke-miterlimit: 4; fill: rgb(241,85,86); fill-rule: nonzero; opacity: 1;"  paint-order="stroke"  transform=" translate(-134.49499999999998, 13.567504366759215)" d="M 3.42 -26.11 L 0.22 -26.11 L 0.22 -27.14 L 14.03 -27.14 L 14.03 -7.57 Q 14.03 -5.2 14.28 -3.97 Q 14.53 -2.73 14.95 -2.37 Q 15.36 -2 16.14 -2 L 16.14 -2 Q 17.92 -2 19.05 -3.76 Q 20.18 -5.51 20.18 -8.66 L 20.18 -8.66 L 20.18 -26.11 L 17.56 -26.11 L 17.56 -27.14 L 30.78 -27.14 L 30.78 -1.03 L 33.93 -1.03 L 33.93 0 L 20.93 0 L 20.29 -4.17 Q 19.37 -1.89 17.59 -0.67 Q 15.81 0.56 12.25 0.56 L 12.25 0.56 Q 3.42 0.56 3.42 -8.96 L 3.42 -8.96 L 3.42 -26.11 Z M 51.35 0 L 35.18 0 L 35.18 -1.03 L 38.3 -1.03 L 38.3 -26.11 L 35.18 -26.11 L 35.18 -27.14 L 48.9 -27.14 L 48.9 -21.88 Q 49.32 -23.1 49.88 -24.02 Q 50.43 -24.94 51.38 -25.83 Q 52.32 -26.72 53.84 -27.21 Q 55.36 -27.69 57.39 -27.69 L 57.39 -27.69 Q 66.24 -27.69 66.24 -18.17 L 66.24 -18.17 L 66.24 -1.03 L 69.41 -1.03 L 69.41 0 L 53.3 0 L 53.3 -1.03 L 55.64 -1.03 L 55.64 -19.54 Q 55.64 -21.9 55.39 -23.1 Q 55.14 -24.3 54.72 -24.63 Q 54.3 -24.97 53.52 -24.97 L 53.52 -24.97 Q 51.68 -24.97 50.29 -22.56 Q 48.9 -20.15 48.9 -16.75 L 48.9 -16.75 L 48.9 -1.03 L 51.35 -1.03 L 51.35 0 Z M 70.72 -6.32 L 70.72 -6.32 Q 70.72 -8.02 71.32 -9.27 Q 71.92 -10.52 72.98 -11.3 Q 74.03 -12.08 75.72 -12.55 Q 77.4 -13.03 79.32 -13.21 Q 81.24 -13.39 83.83 -13.39 L 83.83 -13.39 L 85.47 -13.39 L 85.47 -17.78 Q 85.47 -23.21 84.89 -25.06 Q 84.3 -26.91 82.58 -26.91 L 82.58 -26.91 Q 81.58 -26.91 80.74 -26.38 Q 79.91 -25.86 79.91 -24.63 L 79.91 -24.63 Q 79.91 -23.94 80.24 -22.96 L 80.24 -22.96 L 81.66 -22.96 Q 82.13 -21.68 82.13 -20.4 L 82.13 -20.4 Q 82.13 -18.42 80.7 -17.19 Q 79.27 -15.95 77.09 -15.95 L 77.09 -15.95 Q 74.56 -15.95 73.38 -17.21 Q 72.2 -18.48 72.2 -20.68 L 72.2 -20.68 Q 72.2 -27.69 84.11 -27.69 L 84.11 -27.69 Q 90.87 -27.69 93.47 -25.38 Q 96.08 -23.07 96.08 -16.92 L 96.08 -16.92 L 96.08 -5.37 Q 96.08 -2.39 97.75 -2.39 L 97.75 -2.39 Q 99.69 -2.39 100.03 -8.27 L 100.03 -8.27 L 100.86 -8.21 Q 100.67 -3.2 99.01 -1.32 Q 97.36 0.56 93.57 0.56 L 93.57 0.56 Q 86.78 0.56 85.72 -3.65 L 85.72 -3.65 Q 85 -1.5 83.51 -0.47 Q 82.02 0.56 79.15 0.56 L 79.15 0.56 Q 70.72 0.56 70.72 -6.32 Z M 81.55 -7.29 L 81.55 -6.37 Q 81.55 -3.42 81.85 -2.56 Q 82.16 -1.7 83.02 -1.7 L 83.02 -1.7 Q 83.94 -1.7 84.71 -3.17 Q 85.47 -4.65 85.47 -7.18 L 85.47 -7.18 L 85.47 -12.5 L 85.08 -12.5 Q 81.55 -12.5 81.55 -7.29 L 81.55 -7.29 Z M 118.06 -15.84 L 103.7 -15.84 L 103.7 -17.56 L 118.06 -17.56 L 118.06 -15.84 Z M 137.27 0 L 121.46 0 L 121.46 -1.03 L 124.6 -1.03 L 124.6 -26.11 L 121.46 -26.11 L 121.46 -27.14 L 135.21 -27.14 L 135.21 -21.88 Q 135.6 -23.07 136.14 -24.01 Q 136.68 -24.94 137.59 -25.83 Q 138.49 -26.72 139.94 -27.21 Q 141.39 -27.69 143.25 -27.69 L 143.25 -27.69 Q 149.93 -27.69 151.29 -21.54 L 151.29 -21.54 Q 151.68 -22.71 152.3 -23.71 Q 152.91 -24.71 153.88 -25.66 Q 154.86 -26.61 156.35 -27.15 Q 157.84 -27.69 159.67 -27.69 L 159.67 -27.69 Q 163.6 -27.69 165.82 -25.41 Q 168.05 -23.13 168.05 -18.17 L 168.05 -18.17 L 168.05 -1.03 L 171.22 -1.03 L 171.22 0 L 155.44 0 L 155.44 -1.03 L 157.45 -1.03 L 157.45 -19.54 Q 157.45 -21.88 157.22 -23.1 Q 157 -24.33 156.68 -24.65 Q 156.36 -24.97 155.78 -24.97 L 155.78 -24.97 Q 154.16 -24.97 152.9 -22.75 Q 151.63 -20.54 151.63 -17.09 L 151.63 -17.09 L 151.63 -1.03 L 153.69 -1.03 L 153.69 0 L 139.02 0 L 139.02 -1.03 L 141.02 -1.03 L 141.02 -19.54 Q 141.02 -21.88 140.82 -23.1 Q 140.61 -24.33 140.29 -24.65 Q 139.97 -24.97 139.38 -24.97 L 139.38 -24.97 Q 137.77 -24.97 136.49 -22.56 Q 135.21 -20.15 135.21 -16.75 L 135.21 -16.75 L 135.21 -1.03 L 137.27 -1.03 L 137.27 0 Z M 172.36 -13.5 L 172.36 -13.5 Q 172.36 -17.09 173.52 -19.86 Q 174.67 -22.63 176.72 -24.31 Q 178.77 -26 181.37 -26.84 Q 183.97 -27.69 187 -27.69 L 187 -27.69 Q 193.63 -27.72 196.66 -24.44 L 196.66 -24.44 Q 199.47 -21.4 199.47 -15.67 L 199.47 -15.67 Q 199.47 -15.2 199.44 -14.7 L 199.44 -14.7 L 183.36 -14.7 L 183.36 -12.5 Q 183.36 -9.77 183.64 -7.85 Q 183.91 -5.93 184.64 -4.36 Q 185.36 -2.78 186.71 -1.99 Q 188.06 -1.2 190.09 -1.2 L 190.09 -1.2 Q 193.21 -1.2 195.34 -3.05 Q 197.47 -4.9 198.41 -8.27 L 198.41 -8.27 L 199.44 -8.1 Q 198.92 -6.12 198.07 -4.65 Q 197.22 -3.17 195.81 -1.95 Q 194.41 -0.72 192.21 -0.08 Q 190.01 0.56 187.06 0.56 L 187.06 0.56 Q 179.71 0.56 176.04 -3.23 Q 172.36 -7.01 172.36 -13.5 Z M 183.41 -18.65 L 183.41 -15.84 L 189.29 -15.84 L 189.29 -18.65 Q 189.29 -23.3 188.74 -24.95 Q 188.2 -26.61 186.5 -26.61 L 186.5 -26.61 Q 184.94 -26.61 184.18 -24.81 Q 183.41 -23.02 183.41 -18.65 L 183.41 -18.65 Z M 217.76 0 L 201.59 0 L 201.59 -1.03 L 204.7 -1.03 L 204.7 -26.11 L 201.59 -26.11 L 201.59 -27.14 L 215.31 -27.14 L 215.31 -21.88 Q 215.73 -23.1 216.28 -24.02 Q 216.84 -24.94 217.79 -25.83 Q 218.73 -26.72 220.25 -27.21 Q 221.77 -27.69 223.8 -27.69 L 223.8 -27.69 Q 232.65 -27.69 232.65 -18.17 L 232.65 -18.17 L 232.65 -1.03 L 235.82 -1.03 L 235.82 0 L 219.71 0 L 219.71 -1.03 L 222.04 -1.03 L 222.04 -19.54 Q 222.04 -21.9 221.79 -23.1 Q 221.54 -24.3 221.13 -24.63 Q 220.71 -24.97 219.93 -24.97 L 219.93 -24.97 Q 218.09 -24.97 216.7 -22.56 Q 215.31 -20.15 215.31 -16.75 L 215.31 -16.75 L 215.31 -1.03 L 217.76 -1.03 L 217.76 0 Z M 238.27 -26.11 L 235.07 -26.11 L 235.07 -27.14 L 248.87 -27.14 L 248.87 -7.57 Q 248.87 -5.2 249.12 -3.97 Q 249.38 -2.73 249.79 -2.37 Q 250.21 -2 250.99 -2 L 250.99 -2 Q 252.77 -2 253.9 -3.76 Q 255.02 -5.51 255.02 -8.66 L 255.02 -8.66 L 255.02 -26.11 L 252.41 -26.11 L 252.41 -27.14 L 265.63 -27.14 L 265.63 -1.03 L 268.77 -1.03 L 268.77 0 L 255.78 0 L 255.14 -4.17 Q 254.22 -1.89 252.44 -0.67 Q 250.66 0.56 247.09 0.56 L 247.09 0.56 Q 238.27 0.56 238.27 -8.96 L 238.27 -8.96 L 238.27 -26.11 Z" stroke-linecap="round" />
</g>
<g transform="matrix(1.9692780337941629 0 0 1.9692780337941629 640.260582808069 937.7252690681987)" id="tagline-e9454b02-b25d-49d8-8e35-36c27950b88c-logo-path"  >
<path style="stroke: none; stroke-width: 0; stroke-dasharray: none; stroke-linecap: butt; stroke-dashoffset: 0; stroke-linejoin: miter; stroke-miterlimit: 4; fill: rgb(0,0,0); fill-rule: nonzero; opacity: 1;"  paint-order="stroke"  transform=" translate(-99.775, 3.5649999999999995)" d="M 0.54 -7.08 L 0.54 -7.08 Q 0.54 -10.72 2.59 -12.65 Q 4.63 -14.58 8.31 -14.58 L 8.31 -14.58 Q 12.08 -14.58 13.92 -12.79 Q 15.75 -11 15.75 -7.35 L 15.75 -7.35 Q 15.75 -3.57 13.9 -1.64 Q 12.06 0.29 8.13 0.29 L 8.13 0.29 Q 4.39 0.29 2.47 -1.62 Q 0.54 -3.53 0.54 -7.08 Z M 6.3 -8.31 L 6.3 -5.98 Q 6.3 -5.2 6.31 -4.72 Q 6.31 -4.25 6.34 -3.62 Q 6.36 -2.99 6.42 -2.61 Q 6.47 -2.24 6.56 -1.8 Q 6.65 -1.36 6.79 -1.12 Q 6.93 -0.88 7.12 -0.65 Q 7.31 -0.42 7.58 -0.33 Q 7.85 -0.23 8.19 -0.23 L 8.19 -0.23 Q 8.61 -0.23 8.91 -0.37 Q 9.21 -0.5 9.41 -0.85 Q 9.61 -1.2 9.73 -1.59 Q 9.84 -1.98 9.9 -2.72 Q 9.96 -3.46 9.98 -4.12 Q 9.99 -4.78 9.99 -5.9 L 9.99 -5.9 L 9.99 -8.47 Q 9.99 -9.17 9.98 -9.64 Q 9.98 -10.11 9.95 -10.69 Q 9.93 -11.28 9.87 -11.66 Q 9.81 -12.04 9.73 -12.46 Q 9.65 -12.88 9.52 -13.13 Q 9.39 -13.39 9.21 -13.61 Q 9.02 -13.83 8.77 -13.93 Q 8.53 -14.03 8.22 -14.03 L 8.22 -14.03 Q 7.84 -14.03 7.54 -13.89 Q 7.24 -13.74 7.04 -13.51 Q 6.84 -13.27 6.69 -12.84 Q 6.55 -12.41 6.47 -12 Q 6.4 -11.59 6.36 -10.91 Q 6.31 -10.24 6.31 -9.7 Q 6.3 -9.16 6.3 -8.31 L 6.3 -8.31 Z M 25.17 0 L 16.66 0 L 16.66 -0.54 L 18.3 -0.54 L 18.3 -13.74 L 16.66 -13.74 L 16.66 -14.28 L 23.88 -14.28 L 23.88 -11.51 Q 24.1 -12.16 24.39 -12.64 Q 24.68 -13.13 25.18 -13.59 Q 25.68 -14.06 26.48 -14.32 Q 27.28 -14.58 28.34 -14.58 L 28.34 -14.58 Q 33 -14.58 33 -9.57 L 33 -9.57 L 33 -0.54 L 34.67 -0.54 L 34.67 0 L 26.19 0 L 26.19 -0.54 L 27.42 -0.54 L 27.42 -10.28 Q 27.42 -11.53 27.29 -12.16 Q 27.16 -12.79 26.94 -12.96 Q 26.72 -13.14 26.31 -13.14 L 26.31 -13.14 Q 25.34 -13.14 24.61 -11.87 Q 23.88 -10.61 23.88 -8.82 L 23.88 -8.82 L 23.88 -0.54 L 25.17 -0.54 L 25.17 0 Z M 35.21 -7.1 L 35.21 -7.1 Q 35.21 -8.99 35.82 -10.45 Q 36.43 -11.91 37.51 -12.8 Q 38.58 -13.68 39.95 -14.13 Q 41.32 -14.58 42.92 -14.58 L 42.92 -14.58 Q 46.41 -14.59 48 -12.86 L 48 -12.86 Q 49.48 -11.26 49.48 -8.25 L 49.48 -8.25 Q 49.48 -8 49.47 -7.73 L 49.47 -7.73 L 41 -7.73 L 41 -6.58 Q 41 -5.14 41.15 -4.13 Q 41.29 -3.12 41.67 -2.29 Q 42.06 -1.46 42.77 -1.05 Q 43.48 -0.63 44.55 -0.63 L 44.55 -0.63 Q 46.19 -0.63 47.31 -1.6 Q 48.43 -2.58 48.93 -4.35 L 48.93 -4.35 L 49.47 -4.26 Q 49.19 -3.22 48.74 -2.45 Q 48.3 -1.67 47.56 -1.03 Q 46.82 -0.38 45.66 -0.04 Q 44.5 0.29 42.95 0.29 L 42.95 0.29 Q 39.08 0.29 37.15 -1.7 Q 35.21 -3.69 35.21 -7.1 Z M 41.03 -9.81 L 41.03 -8.33 L 44.12 -8.33 L 44.12 -9.81 Q 44.12 -12.26 43.84 -13.13 Q 43.55 -14 42.66 -14 L 42.66 -14 Q 41.84 -14 41.43 -13.06 Q 41.03 -12.11 41.03 -9.81 L 41.03 -9.81 Z M 56.07 -7.1 L 56.07 -7.1 Q 56.07 -8.99 56.68 -10.45 Q 57.29 -11.91 58.37 -12.8 Q 59.44 -13.68 60.81 -14.13 Q 62.18 -14.58 63.78 -14.58 L 63.78 -14.58 Q 67.27 -14.59 68.86 -12.86 L 68.86 -12.86 Q 70.34 -11.26 70.34 -8.25 L 70.34 -8.25 Q 70.34 -8 70.33 -7.73 L 70.33 -7.73 L 61.86 -7.73 L 61.86 -6.58 Q 61.86 -5.14 62.01 -4.13 Q 62.15 -3.12 62.53 -2.29 Q 62.92 -1.46 63.63 -1.05 Q 64.34 -0.63 65.41 -0.63 L 65.41 -0.63 Q 67.05 -0.63 68.17 -1.6 Q 69.29 -2.58 69.79 -4.35 L 69.79 -4.35 L 70.33 -4.26 Q 70.05 -3.22 69.6 -2.45 Q 69.16 -1.67 68.42 -1.03 Q 67.68 -0.38 66.52 -0.04 Q 65.36 0.29 63.81 0.29 L 63.81 0.29 Q 59.94 0.29 58.01 -1.7 Q 56.07 -3.69 56.07 -7.1 Z M 61.89 -9.81 L 61.89 -8.33 L 64.98 -8.33 L 64.98 -9.81 Q 64.98 -12.26 64.69 -13.13 Q 64.41 -14 63.52 -14 L 63.52 -14 Q 62.7 -14 62.29 -13.06 Q 61.89 -12.11 61.89 -9.81 L 61.89 -9.81 Z M 71.69 -3.33 L 71.69 -3.33 Q 71.69 -4.22 72 -4.88 Q 72.32 -5.54 72.88 -5.95 Q 73.43 -6.36 74.32 -6.61 Q 75.21 -6.86 76.22 -6.95 Q 77.23 -7.05 78.59 -7.05 L 78.59 -7.05 L 79.45 -7.05 L 79.45 -9.36 Q 79.45 -12.22 79.15 -13.19 Q 78.84 -14.17 77.93 -14.17 L 77.93 -14.17 Q 77.4 -14.17 76.96 -13.89 Q 76.52 -13.61 76.52 -12.96 L 76.52 -12.96 Q 76.52 -12.6 76.7 -12.08 L 76.7 -12.08 L 77.45 -12.08 Q 77.7 -11.41 77.7 -10.74 L 77.7 -10.74 Q 77.7 -9.7 76.94 -9.05 Q 76.19 -8.39 75.04 -8.39 L 75.04 -8.39 Q 73.71 -8.39 73.09 -9.06 Q 72.47 -9.73 72.47 -10.88 L 72.47 -10.88 Q 72.47 -14.58 78.74 -14.58 L 78.74 -14.58 Q 82.29 -14.58 83.66 -13.36 Q 85.03 -12.14 85.03 -8.91 L 85.03 -8.91 L 85.03 -2.83 Q 85.03 -1.26 85.91 -1.26 L 85.91 -1.26 Q 86.94 -1.26 87.11 -4.35 L 87.11 -4.35 L 87.55 -4.32 Q 87.45 -1.68 86.58 -0.7 Q 85.71 0.29 83.72 0.29 L 83.72 0.29 Q 80.14 0.29 79.58 -1.92 L 79.58 -1.92 Q 79.2 -0.79 78.42 -0.25 Q 77.64 0.29 76.13 0.29 L 76.13 0.29 Q 71.69 0.29 71.69 -3.33 Z M 77.39 -3.84 L 77.39 -3.35 Q 77.39 -1.8 77.55 -1.35 Q 77.71 -0.89 78.16 -0.89 L 78.16 -0.89 Q 78.65 -0.89 79.05 -1.67 Q 79.45 -2.45 79.45 -3.78 L 79.45 -3.78 L 79.45 -6.58 L 79.25 -6.58 Q 77.39 -6.58 77.39 -3.84 L 77.39 -3.84 Z M 88.9 0.29 L 88.55 0.29 L 88.55 -5.07 L 88.9 -5.07 Q 89.69 -2.46 91.01 -1.41 Q 92.33 -0.37 94.31 -0.37 L 94.31 -0.37 Q 97.37 -0.37 97.37 -2.31 L 97.37 -2.31 Q 97.37 -2.62 97.28 -2.86 Q 97.19 -3.11 96.96 -3.3 Q 96.72 -3.5 96.5 -3.64 Q 96.28 -3.78 95.83 -3.94 Q 95.38 -4.1 95.05 -4.19 Q 94.73 -4.28 94.1 -4.45 L 94.1 -4.45 Q 93.78 -4.54 93.62 -4.58 L 93.62 -4.58 Q 93.02 -4.75 92.58 -4.89 Q 92.14 -5.02 91.57 -5.27 Q 91.01 -5.51 90.61 -5.76 Q 90.21 -6.01 89.79 -6.38 Q 89.38 -6.75 89.13 -7.19 Q 88.87 -7.63 88.71 -8.23 Q 88.55 -8.82 88.55 -9.51 L 88.55 -9.51 Q 88.55 -11.81 89.99 -13.19 Q 91.44 -14.58 93.82 -14.58 L 93.82 -14.58 Q 95.35 -14.58 96.86 -13.89 L 96.86 -13.89 Q 96.93 -13.86 97.04 -13.81 Q 97.15 -13.75 97.21 -13.74 Q 97.27 -13.73 97.35 -13.7 Q 97.43 -13.67 97.51 -13.66 Q 97.59 -13.65 97.69 -13.65 L 97.69 -13.65 Q 98.03 -13.65 98.23 -13.85 Q 98.44 -14.05 98.75 -14.63 L 98.75 -14.63 L 99.07 -14.63 L 99.07 -10.05 L 98.72 -10.05 Q 97.91 -12.08 96.75 -13.02 Q 95.6 -13.95 93.97 -13.95 L 93.97 -13.95 Q 92.56 -13.95 91.88 -13.45 Q 91.19 -12.96 91.19 -12.22 L 91.19 -12.22 Q 91.19 -11.85 91.36 -11.56 Q 91.54 -11.26 91.82 -11.07 Q 92.09 -10.87 92.53 -10.69 Q 92.97 -10.52 93.4 -10.39 Q 93.82 -10.27 94.41 -10.11 L 94.41 -10.11 Q 94.78 -10 94.97 -9.96 L 94.97 -9.96 Q 95.67 -9.77 96.17 -9.6 Q 96.68 -9.43 97.31 -9.15 Q 97.94 -8.86 98.37 -8.49 Q 98.8 -8.12 99.19 -7.61 Q 99.58 -7.1 99.78 -6.4 Q 99.98 -5.7 99.98 -4.83 L 99.98 -4.83 Q 99.98 -2.33 98.47 -1.02 Q 96.97 0.29 94.37 0.29 L 94.37 0.29 Q 92.49 0.29 90.76 -0.57 L 90.76 -0.57 Q 90.41 -0.81 90.19 -0.81 L 90.19 -0.81 Q 89.53 -0.81 88.9 0.29 L 88.9 0.29 Z M 99.9 4.47 L 99.9 4.47 Q 99.9 3.35 100.56 2.7 Q 101.22 2.04 102.3 2.04 L 102.3 2.04 Q 103.48 2.04 104.14 2.56 Q 104.79 3.09 104.79 4.12 L 104.79 4.12 Q 104.79 4.54 104.62 5.19 L 104.62 5.19 L 103.56 5.19 Q 103.42 5.57 103.42 5.87 L 103.42 5.87 Q 103.42 6.12 103.51 6.33 L 103.51 6.33 Q 103.7 6.78 104.31 6.78 L 104.31 6.78 Q 105.54 6.78 106.5 5.57 Q 107.46 4.37 108.34 1.86 L 108.34 1.86 L 109 0 L 106.35 0 L 101.22 -13.74 L 99.99 -13.74 L 99.99 -14.28 L 108.69 -14.28 L 108.69 -13.74 L 107.08 -13.74 L 110.35 -3.78 L 113.82 -13.74 L 111.81 -13.74 L 111.81 -14.28 L 116.04 -14.28 L 116.04 -13.74 L 114.55 -13.74 L 108.94 2.43 Q 107.96 5.24 106.73 6.37 Q 105.5 7.5 103.65 7.5 L 103.65 7.5 Q 101.94 7.5 100.92 6.69 Q 99.9 5.87 99.9 4.47 Z M 129.8 0 L 121.48 0 L 121.48 -0.54 L 123.13 -0.54 L 123.13 -13.74 L 121.48 -13.74 L 121.48 -14.28 L 128.72 -14.28 L 128.72 -11.51 Q 128.92 -12.14 129.21 -12.63 Q 129.49 -13.13 129.97 -13.59 Q 130.44 -14.06 131.21 -14.32 Q 131.97 -14.58 132.95 -14.58 L 132.95 -14.58 Q 136.46 -14.58 137.18 -11.34 L 137.18 -11.34 Q 137.39 -11.95 137.71 -12.48 Q 138.03 -13.01 138.54 -13.51 Q 139.06 -14 139.84 -14.29 Q 140.63 -14.58 141.59 -14.58 L 141.59 -14.58 Q 143.66 -14.58 144.83 -13.37 Q 146 -12.17 146 -9.57 L 146 -9.57 L 146 -0.54 L 147.67 -0.54 L 147.67 0 L 139.37 0 L 139.37 -0.54 L 140.42 -0.54 L 140.42 -10.28 Q 140.42 -11.51 140.3 -12.16 Q 140.19 -12.8 140.02 -12.97 Q 139.85 -13.14 139.54 -13.14 L 139.54 -13.14 Q 138.69 -13.14 138.02 -11.98 Q 137.36 -10.81 137.36 -8.99 L 137.36 -8.99 L 137.36 -0.54 L 138.44 -0.54 L 138.44 0 L 130.72 0 L 130.72 -0.54 L 131.78 -0.54 L 131.78 -10.28 Q 131.78 -11.51 131.67 -12.16 Q 131.56 -12.8 131.39 -12.97 Q 131.22 -13.14 130.91 -13.14 L 130.91 -13.14 Q 130.06 -13.14 129.39 -11.87 Q 128.72 -10.61 128.72 -8.82 L 128.72 -8.82 L 128.72 -0.54 L 129.8 -0.54 L 129.8 0 Z M 148.27 -7.1 L 148.27 -7.1 Q 148.27 -8.99 148.88 -10.45 Q 149.49 -11.91 150.56 -12.8 Q 151.64 -13.68 153.01 -14.13 Q 154.38 -14.58 155.98 -14.58 L 155.98 -14.58 Q 159.46 -14.59 161.06 -12.86 L 161.06 -12.86 Q 162.54 -11.26 162.54 -8.25 L 162.54 -8.25 Q 162.54 -8 162.52 -7.73 L 162.52 -7.73 L 154.06 -7.73 L 154.06 -6.58 Q 154.06 -5.14 154.2 -4.13 Q 154.35 -3.12 154.73 -2.29 Q 155.11 -1.46 155.82 -1.05 Q 156.53 -0.63 157.6 -0.63 L 157.6 -0.63 Q 159.24 -0.63 160.36 -1.6 Q 161.48 -2.58 161.98 -4.35 L 161.98 -4.35 L 162.52 -4.26 Q 162.25 -3.22 161.8 -2.45 Q 161.35 -1.67 160.61 -1.03 Q 159.87 -0.38 158.72 -0.04 Q 157.56 0.29 156.01 0.29 L 156.01 0.29 Q 152.14 0.29 150.21 -1.7 Q 148.27 -3.69 148.27 -7.1 Z M 154.09 -9.81 L 154.09 -8.33 L 157.18 -8.33 L 157.18 -9.81 Q 157.18 -12.26 156.89 -13.13 Q 156.61 -14 155.71 -14 L 155.71 -14 Q 154.89 -14 154.49 -13.06 Q 154.09 -12.11 154.09 -9.81 L 154.09 -9.81 Z M 172.16 0 L 163.65 0 L 163.65 -0.54 L 165.29 -0.54 L 165.29 -13.74 L 163.65 -13.74 L 163.65 -14.28 L 170.87 -14.28 L 170.87 -11.51 Q 171.09 -12.16 171.39 -12.64 Q 171.68 -13.13 172.18 -13.59 Q 172.68 -14.06 173.47 -14.32 Q 174.27 -14.58 175.34 -14.58 L 175.34 -14.58 Q 180 -14.58 180 -9.57 L 180 -9.57 L 180 -0.54 L 181.67 -0.54 L 181.67 0 L 173.19 0 L 173.19 -0.54 L 174.42 -0.54 L 174.42 -10.28 Q 174.42 -11.53 174.29 -12.16 Q 174.16 -12.79 173.94 -12.96 Q 173.72 -13.14 173.31 -13.14 L 173.31 -13.14 Q 172.34 -13.14 171.61 -11.87 Q 170.87 -10.61 170.87 -8.82 L 170.87 -8.82 L 170.87 -0.54 L 172.16 -0.54 L 172.16 0 Z M 182.96 -13.74 L 181.27 -13.74 L 181.27 -14.28 L 188.54 -14.28 L 188.54 -3.98 Q 188.54 -2.74 188.67 -2.09 Q 188.8 -1.44 189.02 -1.25 Q 189.24 -1.05 189.65 -1.05 L 189.65 -1.05 Q 190.59 -1.05 191.18 -1.98 Q 191.78 -2.9 191.78 -4.56 L 191.78 -4.56 L 191.78 -13.74 L 190.4 -13.74 L 190.4 -14.28 L 197.36 -14.28 L 197.36 -0.54 L 199.01 -0.54 L 199.01 0 L 192.17 0 L 191.84 -2.2 Q 191.35 -1 190.42 -0.35 Q 189.48 0.29 187.6 0.29 L 187.6 0.29 Q 182.96 0.29 182.96 -4.72 L 182.96 -4.72 L 182.96 -13.74 Z" stroke-linecap="round" />
</g>
</svg>