<?xml version="1.0" encoding="UTF-8" standalone="no" ?>
<!DOCTYPE svg PUBLIC "-//W3C//DTD SVG 1.1//EN" "http://www.w3.org/Graphics/SVG/1.1/DTD/svg11.dtd">
<svg xmlns="http://www.w3.org/2000/svg" xmlns:xlink="http://www.w3.org/1999/xlink" version="1.1" width="1280" height="1024" viewBox="0 0 1280 1024" xml:space="preserve">
<desc>Created with Fabric.js 3.6.3</desc>
<defs>
</defs>
<g transform="matrix(1.9692780337941629 0 0 1.9692780337941629 640.0153846153846 512.012312418764)" id="background-logo"  >
<rect style="stroke: none; stroke-width: 1; stroke-dasharray: none; stroke-linecap: butt; stroke-dashoffset: 0; stroke-linejoin: miter; stroke-miterlimit: 4; fill: rgb(255,255,255); fill-rule: nonzero; opacity: 1;"  paint-order="stroke"  x="-325" y="-260" rx="0" ry="0" width="650" height="520" />
</g>
<g transform="matrix(1.9692780337941629 0 0 1.9692780337941629 618.2584884913132 354.77546053093243)" id="logo-logo"  >
<g style=""  paint-order="stroke"   >
		<g transform="matrix(1.8761031581268313 0 0 -1.8761031581268315 0 0)"  >
<linearGradient id="SVGID_16_59569" gradientUnits="userSpaceOnUse" gradientTransform="matrix(152.58315 142.70387 142.70387 -152.58315 90.384766 60.583008)"  x1="0" y1="0" x2="1" y2="0">
<stop offset="0%" style="stop-color:rgb(243,108,65);stop-opacity: 1"/>
<stop offset="100%" style="stop-color:rgb(238,44,123);stop-opacity: 1"/>
</linearGradient>
<path style="stroke: none; stroke-width: 1; stroke-dasharray: none; stroke-linecap: butt; stroke-dashoffset: 0; stroke-linejoin: miter; stroke-miterlimit: 4; fill: url(#SVGID_16_59569); fill-rule: nonzero; opacity: 1;"  paint-order="stroke"  transform=" translate(-162.50252143787685, -128.78063186330405)" d="M 217.333 200.096 C 179.375 189.311 140.065 181.244 100.97 175.7 v 0 c -8.722 -1.236 -11.443 -9.44 -5.84 -16.283 v 0 c 19.709 -24.007 28.048 -59.035 29.044 -89.423 v 0 c 0.197 -5.973 2.298 -9.134 7.97 -10.393 v 0 c 20.633 -4.594 52.71 -3.589 73.419 2.595 v 0 c 4.32 1.284 6.186 3.04 7.705 6.863 v 0 c 13.895 34.935 23.607 86.594 17.836 123.003 v 0 c -0.969 6.112 -4.374 8.755 -9.094 8.755 v 0 c -1.446 0 -3.016 -0.248 -4.677 -0.721 M 134.558 68.625 c -0.896 0.193 -1.012 0.475 -1.054 1.672 v 0 c -1.059 32.446 -10.045 69.036 -30.84 94.657 v 0 c -0.763 0.936 -0.3 1.517 0.665 1.655 v 0 c 39.286 5.589 78.381 13.66 116.555 24.507 v 0 c 1.799 0.512 1.91 0.103 2.101 -1.179 v 0 c 5.331 -35.033 -4.421 -84.37 -17.27 -117.132 v 0 c -0.379 -0.958 -0.438 -1.251 -1.823 -1.665 v 0 c -11.161 -3.329 -26.151 -5.042 -40.56 -5.041 v 0 c -10.038 0 -19.795 0.831 -27.774 2.526" stroke-linecap="round" />
</g>
		<g transform="matrix(1.8761031581268313 0 0 -1.8761031581268315 17.320021079005585 -9.645373792305918)"  >
<linearGradient id="SVGID_17_59570" gradientUnits="userSpaceOnUse" gradientTransform="matrix(152.58432 142.70497 142.70497 -152.58432 90.89502 60.036133)"  x1="0" y1="0" x2="1" y2="0">
<stop offset="0%" style="stop-color:rgb(243,108,65);stop-opacity: 1"/>
<stop offset="100%" style="stop-color:rgb(238,44,123);stop-opacity: 1"/>
</linearGradient>
<path style="stroke: none; stroke-width: 1; stroke-dasharray: none; stroke-linecap: butt; stroke-dashoffset: 0; stroke-linejoin: miter; stroke-miterlimit: 4; fill: url(#SVGID_17_59570); fill-rule: nonzero; opacity: 1;"  paint-order="stroke"  transform=" translate(-171.7344344081095, -133.92180640401332)" d="m 203.218 144.55 c -14.474 -4.744 -28.138 -7.096 -43.323 -7.988 v 0 c -3.298 4.229 -7.717 6.092 -12.975 5.907 v 0 c -8.012 -0.279 -16.744 -4.153 -16.744 -9.895 v 0 c 0 -5.516 8.732 -9.617 16.744 -9.895 v 0 c 5.258 -0.184 9.677 1.677 12.975 5.908 v 0 c 11.381 -0.495 35.787 -1.044 45.828 2.199 v 0 c 10.54 3.409 9.276 14.39 1.11 14.391 v 0 c -1.087 0 -2.295 -0.195 -3.615 -0.627" stroke-linecap="round" />
</g>
		<g transform="matrix(1.8761031581268313 0 0 -1.8761031581268315 11.324607236983752 -62.67125028294748)"  >
<linearGradient id="SVGID_18_59571" gradientUnits="userSpaceOnUse" gradientTransform="matrix(152.5831 142.70383 142.70383 -152.5831 77.087402 74.799805)"  x1="0" y1="0" x2="1" y2="0">
<stop offset="0%" style="stop-color:rgb(243,108,65);stop-opacity: 1"/>
<stop offset="100%" style="stop-color:rgb(238,44,123);stop-opacity: 1"/>
</linearGradient>
<path style="stroke: none; stroke-width: 1; stroke-dasharray: none; stroke-linecap: butt; stroke-dashoffset: 0; stroke-linejoin: miter; stroke-miterlimit: 4; fill: url(#SVGID_18_59571); fill-rule: nonzero; opacity: 1;"  paint-order="stroke"  transform=" translate(-168.53876053695208, -162.18564480807237)" d="m 188.818 174.508 c -7.077 -1.018 -7.105 -4.751 -9.955 -9.451 v 0 c -12.06 -3.232 -32.186 -3.475 -43.039 -2.201 v 0 c -15.596 1.827 -17.303 -14.577 -3.817 -15.36 v 0 c 20.716 -1.199 36.937 3.928 49.462 8.591 v 0 c 4.926 -2.441 6.956 -5.576 13.473 -2.641 v 0 l 19.224 9.197 l -0.422 1.449 l -17.473 -5.079 c -1.834 -0.536 -2.539 1.867 -0.694 2.401 v 0 l 17.468 5.081 l -0.626 2.149 l -17.473 -5.079 c -0.919 -0.266 -1.551 0.202 -1.729 0.803 v 0 c -0.172 0.598 0.116 1.335 1.034 1.601 v 0 l 17.469 5.079 l -0.621 2.153 l -17.473 -5.08 c -1.845 -0.536 -2.534 1.867 -0.699 2.402 v 0 l 17.472 5.079 l -0.418 1.45 z" stroke-linecap="round" />
</g>
		<g transform="matrix(1.8761031581268313 0 0 -1.8761031581268315 20.548161748473035 32.56088261123216)"  >
<linearGradient id="SVGID_19_59572" gradientUnits="userSpaceOnUse" gradientTransform="matrix(152.58669 142.70718 142.70718 -152.58669 101.25879 48.951172)"  x1="0" y1="0" x2="1" y2="0">
<stop offset="0%" style="stop-color:rgb(243,108,65);stop-opacity: 1"/>
<stop offset="100%" style="stop-color:rgb(238,44,123);stop-opacity: 1"/>
</linearGradient>
<path style="stroke: none; stroke-width: 1; stroke-dasharray: none; stroke-linecap: butt; stroke-dashoffset: 0; stroke-linejoin: miter; stroke-miterlimit: 4; fill: url(#SVGID_19_59572); fill-rule: nonzero; opacity: 1;"  paint-order="stroke"  transform=" translate(-173.45509707822123, -111.42503898442308)" d="m 206.279 123.752 c -21.924 -4.463 -40.585 -8.012 -62.305 -8.012 v 0 c -10.441 0 -8.593 -10.249 -1.024 -11.825 v 0 c 3.849 -0.797 12.019 0.868 15.721 2.069 v 0 c 1.988 -4.283 5.362 -7.416 9.754 -7.019 v 0 c 7.165 0.644 34.438 14.199 39.497 19.261 v 0 c 3.274 3.278 2.848 5.693 -0.136 5.693 v 0 c -0.447 0 -0.95 -0.054 -1.507 -0.167" stroke-linecap="round" />
</g>
		<g transform="matrix(1.8761031581268313 0 0 -1.8761031581268315 17.55796223312535 76.58371626436545)"  >
<linearGradient id="SVGID_20_59573" gradientUnits="userSpaceOnUse" gradientTransform="matrix(152.58734 142.70779 142.70779 -152.58734 114.63037 34.654297)"  x1="0" y1="0" x2="1" y2="0">
<stop offset="0%" style="stop-color:rgb(243,108,65);stop-opacity: 1"/>
<stop offset="100%" style="stop-color:rgb(238,44,123);stop-opacity: 1"/>
</linearGradient>
<path style="stroke: none; stroke-width: 1; stroke-dasharray: none; stroke-linecap: butt; stroke-dashoffset: 0; stroke-linejoin: miter; stroke-miterlimit: 4; fill: url(#SVGID_20_59573); fill-rule: nonzero; opacity: 1;"  paint-order="stroke"  transform=" translate(-171.86126173798692, -87.96000004856447)" d="m 196.577 94.858 c -6.571 -1.712 -14.09 -2.997 -22.28 -3.812 v 0 c -8.9 -0.889 -18.586 -1.23 -28.698 -0.973 v 0 c -7.517 0.184 -6.711 -9.32 0.323 -9.32 v 0 c 10.298 0 20.178 0.123 29.286 1.029 v 0 c 9.069 0.905 16.955 2.232 24.155 4.165 v 0 c 5.596 1.5 5.417 9.221 -0.564 9.22 v 0 c -0.668 0 -1.409 -0.097 -2.222 -0.309" stroke-linecap="round" />
</g>
</g>
</g>

</svg>